<mxfile host="app.diagrams.net" modified="2022-08-02T16:22:03.420Z" agent="5.0 (Windows NT 10.0; Win64; x64) AppleWebKit/537.36 (KHTML, like Gecko) Chrome/103.0.0.0 Safari/537.36" etag="T5v8NqYS7Ooo8wxFAFVF" version="20.2.2" type="github">
  <diagram id="C5RBs43oDa-KdzZeNtuy" name="Page-1">
    <mxGraphModel dx="1481" dy="343" grid="1" gridSize="10" guides="1" tooltips="1" connect="1" arrows="1" fold="1" page="1" pageScale="1" pageWidth="827" pageHeight="1169" math="0" shadow="0">
      <root>
        <mxCell id="WIyWlLk6GJQsqaUBKTNV-0" />
        <mxCell id="WIyWlLk6GJQsqaUBKTNV-1" parent="WIyWlLk6GJQsqaUBKTNV-0" />
        <mxCell id="WQpz1Ic-05Pspya89vmh-6" style="edgeStyle=orthogonalEdgeStyle;shape=link;rounded=0;orthogonalLoop=1;jettySize=auto;html=1;exitX=0;exitY=1;exitDx=0;exitDy=0;" edge="1" parent="WIyWlLk6GJQsqaUBKTNV-1" source="WQpz1Ic-05Pspya89vmh-0" target="WQpz1Ic-05Pspya89vmh-1">
          <mxGeometry relative="1" as="geometry">
            <Array as="points">
              <mxPoint x="240" y="60" />
              <mxPoint x="160" y="60" />
            </Array>
          </mxGeometry>
        </mxCell>
        <mxCell id="WQpz1Ic-05Pspya89vmh-7" style="edgeStyle=orthogonalEdgeStyle;shape=link;rounded=0;orthogonalLoop=1;jettySize=auto;html=1;exitX=0.5;exitY=1;exitDx=0;exitDy=0;entryX=0.5;entryY=0;entryDx=0;entryDy=0;" edge="1" parent="WIyWlLk6GJQsqaUBKTNV-1" source="WQpz1Ic-05Pspya89vmh-0" target="WQpz1Ic-05Pspya89vmh-2">
          <mxGeometry relative="1" as="geometry" />
        </mxCell>
        <mxCell id="WQpz1Ic-05Pspya89vmh-8" style="edgeStyle=orthogonalEdgeStyle;shape=link;rounded=0;orthogonalLoop=1;jettySize=auto;html=1;exitX=1;exitY=0.5;exitDx=0;exitDy=0;" edge="1" parent="WIyWlLk6GJQsqaUBKTNV-1" source="WQpz1Ic-05Pspya89vmh-0" target="WQpz1Ic-05Pspya89vmh-4">
          <mxGeometry relative="1" as="geometry" />
        </mxCell>
        <mxCell id="WQpz1Ic-05Pspya89vmh-19" style="edgeStyle=orthogonalEdgeStyle;shape=link;rounded=0;orthogonalLoop=1;jettySize=auto;html=1;exitX=1;exitY=0.25;exitDx=0;exitDy=0;" edge="1" parent="WIyWlLk6GJQsqaUBKTNV-1" source="WQpz1Ic-05Pspya89vmh-0" target="WQpz1Ic-05Pspya89vmh-5">
          <mxGeometry relative="1" as="geometry" />
        </mxCell>
        <mxCell id="WQpz1Ic-05Pspya89vmh-23" style="edgeStyle=orthogonalEdgeStyle;shape=link;rounded=0;orthogonalLoop=1;jettySize=auto;html=1;exitX=1;exitY=0.75;exitDx=0;exitDy=0;entryX=0;entryY=0.5;entryDx=0;entryDy=0;" edge="1" parent="WIyWlLk6GJQsqaUBKTNV-1" source="WQpz1Ic-05Pspya89vmh-0" target="WQpz1Ic-05Pspya89vmh-22">
          <mxGeometry relative="1" as="geometry" />
        </mxCell>
        <mxCell id="WQpz1Ic-05Pspya89vmh-0" value="HOME" style="rounded=1;whiteSpace=wrap;html=1;" vertex="1" parent="WIyWlLk6GJQsqaUBKTNV-1">
          <mxGeometry x="240" y="40" width="120" height="60" as="geometry" />
        </mxCell>
        <mxCell id="WQpz1Ic-05Pspya89vmh-10" style="edgeStyle=orthogonalEdgeStyle;shape=link;rounded=0;orthogonalLoop=1;jettySize=auto;html=1;exitX=0.5;exitY=1;exitDx=0;exitDy=0;entryX=0.5;entryY=0;entryDx=0;entryDy=0;" edge="1" parent="WIyWlLk6GJQsqaUBKTNV-1" source="WQpz1Ic-05Pspya89vmh-1" target="WQpz1Ic-05Pspya89vmh-3">
          <mxGeometry relative="1" as="geometry" />
        </mxCell>
        <mxCell id="WQpz1Ic-05Pspya89vmh-1" value="MIJN ACCOUNT" style="rounded=1;whiteSpace=wrap;html=1;" vertex="1" parent="WIyWlLk6GJQsqaUBKTNV-1">
          <mxGeometry x="100" y="130" width="120" height="60" as="geometry" />
        </mxCell>
        <mxCell id="WQpz1Ic-05Pspya89vmh-2" value="RECEPTEN" style="rounded=1;whiteSpace=wrap;html=1;" vertex="1" parent="WIyWlLk6GJQsqaUBKTNV-1">
          <mxGeometry x="240" y="130" width="120" height="60" as="geometry" />
        </mxCell>
        <mxCell id="WQpz1Ic-05Pspya89vmh-15" style="edgeStyle=orthogonalEdgeStyle;shape=link;rounded=0;orthogonalLoop=1;jettySize=auto;html=1;exitX=0.5;exitY=1;exitDx=0;exitDy=0;" edge="1" parent="WIyWlLk6GJQsqaUBKTNV-1" source="WQpz1Ic-05Pspya89vmh-3" target="WQpz1Ic-05Pspya89vmh-13">
          <mxGeometry relative="1" as="geometry" />
        </mxCell>
        <mxCell id="WQpz1Ic-05Pspya89vmh-16" style="edgeStyle=orthogonalEdgeStyle;shape=link;rounded=0;orthogonalLoop=1;jettySize=auto;html=1;exitX=1;exitY=0.5;exitDx=0;exitDy=0;" edge="1" parent="WIyWlLk6GJQsqaUBKTNV-1" source="WQpz1Ic-05Pspya89vmh-3" target="WQpz1Ic-05Pspya89vmh-14">
          <mxGeometry relative="1" as="geometry" />
        </mxCell>
        <mxCell id="WQpz1Ic-05Pspya89vmh-17" style="edgeStyle=orthogonalEdgeStyle;shape=link;rounded=0;orthogonalLoop=1;jettySize=auto;html=1;exitX=0;exitY=0.25;exitDx=0;exitDy=0;entryX=0.5;entryY=0;entryDx=0;entryDy=0;" edge="1" parent="WIyWlLk6GJQsqaUBKTNV-1" source="WQpz1Ic-05Pspya89vmh-3" target="WQpz1Ic-05Pspya89vmh-11">
          <mxGeometry relative="1" as="geometry" />
        </mxCell>
        <mxCell id="WQpz1Ic-05Pspya89vmh-3" value="ABONNEMENT BEHEREN" style="rounded=1;whiteSpace=wrap;html=1;" vertex="1" parent="WIyWlLk6GJQsqaUBKTNV-1">
          <mxGeometry x="100" y="220" width="120" height="40" as="geometry" />
        </mxCell>
        <mxCell id="WQpz1Ic-05Pspya89vmh-24" style="edgeStyle=orthogonalEdgeStyle;shape=link;rounded=0;orthogonalLoop=1;jettySize=auto;html=1;exitX=0.5;exitY=1;exitDx=0;exitDy=0;entryX=0.5;entryY=0;entryDx=0;entryDy=0;" edge="1" parent="WIyWlLk6GJQsqaUBKTNV-1" source="WQpz1Ic-05Pspya89vmh-4" target="WQpz1Ic-05Pspya89vmh-22">
          <mxGeometry relative="1" as="geometry" />
        </mxCell>
        <mxCell id="WQpz1Ic-05Pspya89vmh-4" value="ABONNEREN&amp;nbsp;" style="rounded=1;whiteSpace=wrap;html=1;" vertex="1" parent="WIyWlLk6GJQsqaUBKTNV-1">
          <mxGeometry x="390" y="130" width="120" height="60" as="geometry" />
        </mxCell>
        <mxCell id="WQpz1Ic-05Pspya89vmh-21" style="edgeStyle=orthogonalEdgeStyle;shape=link;rounded=0;orthogonalLoop=1;jettySize=auto;html=1;exitX=0.5;exitY=1;exitDx=0;exitDy=0;entryX=0.5;entryY=0;entryDx=0;entryDy=0;" edge="1" parent="WIyWlLk6GJQsqaUBKTNV-1" source="WQpz1Ic-05Pspya89vmh-5" target="WQpz1Ic-05Pspya89vmh-20">
          <mxGeometry relative="1" as="geometry" />
        </mxCell>
        <mxCell id="WQpz1Ic-05Pspya89vmh-5" value="CONTACT" style="rounded=1;whiteSpace=wrap;html=1;" vertex="1" parent="WIyWlLk6GJQsqaUBKTNV-1">
          <mxGeometry x="530" y="130" width="120" height="60" as="geometry" />
        </mxCell>
        <mxCell id="WQpz1Ic-05Pspya89vmh-11" value="OPZEGGEN ABONNEMENT" style="rounded=1;whiteSpace=wrap;html=1;" vertex="1" parent="WIyWlLk6GJQsqaUBKTNV-1">
          <mxGeometry x="-20" y="310" width="120" height="60" as="geometry" />
        </mxCell>
        <mxCell id="WQpz1Ic-05Pspya89vmh-13" value="AANPASSEN ABONNEMENT" style="rounded=1;whiteSpace=wrap;html=1;" vertex="1" parent="WIyWlLk6GJQsqaUBKTNV-1">
          <mxGeometry x="120" y="310" width="120" height="60" as="geometry" />
        </mxCell>
        <mxCell id="WQpz1Ic-05Pspya89vmh-14" value="PAUZEREN ABONNEMENT" style="rounded=1;whiteSpace=wrap;html=1;" vertex="1" parent="WIyWlLk6GJQsqaUBKTNV-1">
          <mxGeometry x="260" y="310" width="120" height="60" as="geometry" />
        </mxCell>
        <mxCell id="WQpz1Ic-05Pspya89vmh-20" value="OVER FOODFREEDOM" style="rounded=1;whiteSpace=wrap;html=1;" vertex="1" parent="WIyWlLk6GJQsqaUBKTNV-1">
          <mxGeometry x="530" y="220" width="120" height="60" as="geometry" />
        </mxCell>
        <mxCell id="WQpz1Ic-05Pspya89vmh-22" value="HOE WERKT HET?" style="rounded=1;whiteSpace=wrap;html=1;" vertex="1" parent="WIyWlLk6GJQsqaUBKTNV-1">
          <mxGeometry x="390" y="220" width="120" height="60" as="geometry" />
        </mxCell>
      </root>
    </mxGraphModel>
  </diagram>
</mxfile>
